<svg width="223" height="223" viewBox="0 0 223 223" fill="none" xmlns="http://www.w3.org/2000/svg">
<rect width="223" height="223" rx="21" fill="#00CBFF"/>
<rect x="4" y="4" width="215" height="215" rx="17" stroke="white" stroke-width="4"/>
<path d="M108.763 20.5707C109.982 18.4497 113.018 18.4497 114.237 20.5707L210.568 188.186C211.791 190.314 210.27 192.98 207.832 192.98H15.1682C12.7302 192.98 11.2085 190.314 12.4317 188.186L108.763 20.5707Z" fill="white"/>
<path d="M119.035 71C124 71 128 67 128 61.5C128 56 124.069 52 119.035 52C114 52 110 56 110 61.5C110 67 114.069 71 119.035 71Z" fill="black"/>
<path d="M133 101C133 101 126.282 79.5884 126 79C124.026 75.3226 119.702 73.9754 115.472 73.9754C113.781 73.9754 108.41 75.2645 107 76L90.9426 83.2424C89.5329 83.8308 88.405 85.0075 87.8411 86.4785L83.0001 104C82.5001 105.5 82.0617 109.031 84.0001 110C85.0001 110.5 85.0001 110.5 85.5001 110.5C86.8598 110.5 88.1543 109.572 89.0001 107.219L94.846 91.4166C94.9441 91.1513 95.15 90.9401 95.4125 90.835L102.937 87.8252C103.738 87.505 104.547 88.2814 104.266 89.0961C102.628 93.8349 98.6907 105.612 97 114C95.1919 122.97 94.274 136.499 94.0532 140.096C94.0166 140.691 93.8079 141.254 93.4482 141.731L75.501 165.5C73.0007 169 76 171 76 171C76 171 79.0009 173 81.4993 170.5C85.622 166.375 102.644 146.787 102.644 146.787C103.208 146.052 103.63 145.169 103.771 144.287L108.574 127.95C108.776 127.263 109.614 127.005 110.168 127.459L121.997 137.176C122.637 137.702 123.031 138.469 123.086 139.295L124 153L125 169C125 169 125 174 129 174C133 174 133 169 133 169L133.658 135.755C133.658 133.843 132.813 132.078 131.403 131.048L117.644 116.232C116.933 115.467 116.672 114.387 116.953 113.381L121.534 97.0217C121.797 96.0833 123.11 96.0367 123.439 96.9541L126.5 105.5C127.205 106.971 130.949 109.412 132.5 110L144.514 116.339L146 117C146 117 146.951 117.634 148.347 116.883C149.19 116.43 149.735 115.531 149.792 114.576C149.914 112.549 148.396 111.569 145.5 109.5L139 105.5L133 101Z" fill="black"/>
<path d="M55.8944 153H69.7958L61.8521 175H41L55.8944 153Z" fill="black"/>
<path d="M167.106 153H153.204L161.148 175H182L167.106 153Z" fill="black"/>
<path d="M117.458 153H105.542L101.57 175H121.43L117.458 153Z" fill="black"/>
</svg>
