<svg width="210" height="210" viewBox="0 0 210 210" fill="none" xmlns="http://www.w3.org/2000/svg">
<path d="M1 4.39999C1 3.09062 1 2.43594 1.29472 1.955C1.45963 1.68589 1.68589 1.45963 1.955 1.29472C2.43594 1 3.09063 1 4.4 1H205.6C206.909 1 207.564 1 208.045 1.29472C208.314 1.45963 208.54 1.68589 208.705 1.955C209 2.43594 209 3.09063 209 4.4V205.6C209 206.909 209 207.564 208.705 208.045C208.54 208.314 208.314 208.54 208.045 208.705C207.564 209 206.909 209 205.6 209H4.39999C3.09062 209 2.43594 209 1.955 208.705C1.68589 208.54 1.45963 208.314 1.29472 208.045C1 207.564 1 206.909 1 205.6V4.39999Z" fill="#FDFDFD"/>
<path d="M115.064 154.234C115.041 154.15 115.029 154.108 115.005 154.077C114.984 154.05 114.955 154.028 114.923 154.015C114.887 154 114.843 154 114.756 154H95.2424C95.1552 154 95.1117 154 95.0751 154.015C95.0429 154.028 95.0147 154.05 94.9933 154.077C94.969 154.108 94.9574 154.15 94.934 154.234L85.1118 189.594C85.0735 189.732 85.0544 189.801 85.0701 189.856C85.0839 189.903 85.115 189.944 85.1573 189.97C85.2056 190 85.2771 190 85.4201 190H124.578C124.721 190 124.793 190 124.841 189.97C124.883 189.944 124.914 189.903 124.928 189.856C124.944 189.801 124.925 189.732 124.886 189.594L115.064 154.234Z" fill="#797979"/>
<path d="M56.8 154.45C56.8667 154.3 56.9 154.225 56.8891 154.164C56.8795 154.112 56.8491 154.065 56.8046 154.035C56.7538 154 56.6717 154 56.5076 154H33.3345C33.2748 154 33.245 154 33.2176 154.008C33.1934 154.015 33.1708 154.027 33.1509 154.042C33.1284 154.059 33.1108 154.084 33.0757 154.132L7.36943 189.492C7.25023 189.656 7.19062 189.738 7.19276 189.806C7.19462 189.866 7.22297 189.921 7.27007 189.958C7.32418 190 7.42554 190 7.62826 190H40.792C40.8673 190 40.905 190 40.9378 189.988C40.9669 189.978 40.9931 189.961 41.0144 189.938C41.0386 189.913 41.0539 189.879 41.0845 189.81L56.8 154.45Z" fill="#797979"/>
<path d="M153.2 154.45C153.133 154.3 153.1 154.225 153.111 154.164C153.12 154.112 153.151 154.065 153.195 154.035C153.246 154 153.328 154 153.492 154H176.665C176.725 154 176.754 154 176.782 154.008C176.806 154.015 176.829 154.027 176.848 154.042C176.871 154.059 176.889 154.084 176.924 154.132L202.631 189.492C202.75 189.656 202.809 189.738 202.807 189.806C202.805 189.866 202.777 189.921 202.73 189.958C202.676 190 202.574 190 202.372 190H169.208C169.133 190 169.095 190 169.062 189.988C169.033 189.978 169.007 189.961 168.986 189.938C168.961 189.913 168.946 189.879 168.916 189.81L153.2 154.45Z" fill="#797979"/>
<path d="M117.43 43.7213C124.949 43.7213 131.006 37.8852 131.006 29.8607C131.006 21.8361 125.054 16 117.43 16C109.806 16 103.749 21.8361 103.749 29.8607C103.749 37.8852 109.911 43.7213 117.43 43.7213Z" fill="black"/>
<path d="M138.577 87.4918C134.704 83.5214 130.747 59.0385 127.977 55.3934C123.5 49.5 118.44 48.0625 112.035 48.0625C109.474 48.0625 101.341 49.9433 99.2058 51.0164L74.89 61.5832C72.7552 62.4416 71.0474 64.1585 70.1935 66.3047L62.8628 91.8689C62.1057 94.0574 61.0015 99.7161 64.3771 100.623C69.5027 102 72.0031 95 72.0031 95L80.7567 73.5809C80.8691 73.3058 80.9253 73.1683 81.0149 73.056C81.0657 72.9922 81.1242 72.9349 81.189 72.8853C81.3031 72.7981 81.4417 72.7446 81.719 72.6378L92.6559 68.4227C93.8938 67.9456 94.5128 67.707 94.8962 67.8832C95.1069 67.98 95.2748 68.1438 95.3767 68.352C95.5623 68.731 95.3396 69.3544 94.8941 70.6012C92.3216 77.8011 86.5659 94.4939 84.0627 106.459C81.3703 119.328 79.9814 138.629 79.618 144.258C79.5754 144.918 79.5541 145.248 79.4683 145.553C79.4188 145.728 79.3562 145.893 79.276 146.057C79.1371 146.341 78.9354 146.598 78.5321 147.113L51.5069 181.598C47.7208 186.705 52.2626 189.623 52.2626 189.623C52.2626 189.623 56.8068 192.541 60.5901 188.893C66.8331 182.874 92.6088 154.296 92.6088 154.296C93.4627 153.223 94.1032 151.936 94.3166 150.648L101.507 127.08C101.776 126.2 101.91 125.76 102.203 125.562C102.365 125.452 102.556 125.393 102.752 125.391C103.106 125.387 103.467 125.672 104.188 126.243L121.667 140.077C122.382 140.643 122.74 140.926 122.992 141.286C123.135 141.491 123.252 141.713 123.34 141.947C123.496 142.359 123.527 142.814 123.59 143.724L124.949 163.361L126.463 186.705C126.463 186.705 126.463 194 132.52 194C138.577 194 138.577 186.705 138.577 186.705L139.574 138.2C139.574 135.41 138.293 132.835 136.159 131.333L116.168 108.534C115.437 107.701 115.072 107.284 114.88 106.794C114.772 106.516 114.705 106.224 114.683 105.927C114.644 105.402 114.793 104.868 115.091 103.801L120.899 82.9977C121.433 81.0841 121.701 80.1273 122.139 79.9382C122.38 79.8346 122.64 79.8282 122.885 79.9197C123.333 80.0869 123.65 81.0374 124.283 82.9383C125.532 86.6834 127.237 91.381 128.734 94.0574C131.5 99 135 99.5 137.5 101C140 102.5 156.012 109.871 156.012 109.871L158.263 110.836C158.263 110.836 162.016 112.5 163.563 109.377C165.016 105.5 162.806 103.541 157.506 99.8934L147.663 94.0574C147.663 94.0574 142 91 138.577 87.4918Z" fill="black"/>
<path d="M1.955 208.705L1.6415 209.217L1.955 208.705ZM1.29472 208.045L0.783136 208.358L1.29472 208.045ZM208.705 208.045L208.194 207.731L208.705 208.045ZM208.045 208.705L207.731 208.194L208.045 208.705ZM208.045 1.29472L208.358 0.783136L208.045 1.29472ZM208.705 1.955L209.217 1.6415L208.705 1.955ZM4.4 1.6H205.6V0.4H4.4V1.6ZM208.4 4.4V205.6H209.6V4.4H208.4ZM205.6 208.4H4.39999V209.6H205.6V208.4ZM1.6 205.6V4.39999H0.4V205.6H1.6ZM4.39999 208.4C3.73369 208.4 3.2761 208.399 2.92363 208.366C2.58009 208.333 2.39885 208.274 2.2685 208.194L1.6415 209.217C1.99209 209.432 2.37867 209.519 2.81004 209.56C3.23249 209.601 3.75692 209.6 4.39999 209.6V208.4ZM0.4 205.6C0.4 206.243 0.399367 206.768 0.439534 207.19C0.48055 207.621 0.568295 208.008 0.783136 208.358L1.8063 207.731C1.72642 207.601 1.66681 207.42 1.63415 207.076C1.60063 206.724 1.6 206.266 1.6 205.6H0.4ZM2.2685 208.194C2.08012 208.078 1.92174 207.92 1.8063 207.731L0.783136 208.358C0.99752 208.708 1.29166 209.002 1.6415 209.217L2.2685 208.194ZM208.4 205.6C208.4 206.266 208.399 206.724 208.366 207.076C208.333 207.42 208.274 207.601 208.194 207.731L209.217 208.358C209.432 208.008 209.519 207.621 209.56 207.19C209.601 206.768 209.6 206.243 209.6 205.6H208.4ZM205.6 209.6C206.243 209.6 206.768 209.601 207.19 209.56C207.621 209.519 208.008 209.432 208.358 209.217L207.731 208.194C207.601 208.274 207.42 208.333 207.076 208.366C206.724 208.399 206.266 208.4 205.6 208.4V209.6ZM208.194 207.731C208.078 207.92 207.92 208.078 207.731 208.194L208.358 209.217C208.708 209.002 209.002 208.708 209.217 208.358L208.194 207.731ZM205.6 1.6C206.266 1.6 206.724 1.60063 207.076 1.63415C207.42 1.66681 207.601 1.72642 207.731 1.8063L208.358 0.783136C208.008 0.568295 207.621 0.48055 207.19 0.439534C206.768 0.399367 206.243 0.4 205.6 0.4V1.6ZM209.6 4.4C209.6 3.75693 209.601 3.2325 209.56 2.81005C209.519 2.37867 209.432 1.99209 209.217 1.6415L208.194 2.2685C208.274 2.39885 208.333 2.58009 208.366 2.92363C208.399 3.2761 208.4 3.7337 208.4 4.4H209.6ZM207.731 1.8063C207.92 1.92174 208.078 2.08012 208.194 2.2685L209.217 1.6415C209.002 1.29166 208.708 0.99752 208.358 0.783136L207.731 1.8063ZM4.4 0.4C3.75693 0.4 3.2325 0.399367 2.81005 0.439534C2.37867 0.48055 1.99209 0.568295 1.6415 0.783136L2.2685 1.8063C2.39885 1.72642 2.58009 1.66681 2.92363 1.63415C3.2761 1.60063 3.7337 1.6 4.4 1.6V0.4ZM1.6 4.39999C1.6 3.73369 1.60063 3.2761 1.63415 2.92363C1.66681 2.58009 1.72642 2.39885 1.8063 2.2685L0.783136 1.6415C0.568295 1.99209 0.48055 2.37867 0.439534 2.81004C0.399367 3.23249 0.4 3.75692 0.4 4.39999H1.6ZM1.6415 0.783136C1.29166 0.99752 0.99752 1.29166 0.783136 1.6415L1.8063 2.2685C1.92174 2.08012 2.08012 1.92174 2.2685 1.8063L1.6415 0.783136Z" fill="#797979"/>
</svg>
